<svg width="16" height="20" viewBox="0 0 16 20" fill="none" xmlns="http://www.w3.org/2000/svg">
<path d="M14.4615 2.5H11.0769V1.875C11.0769 0.839453 10.2504 0 9.23077 0H6.76923C5.74962 0 4.92308 0.839453 4.92308 1.875V2.5H1.53846C0.688808 2.5 0 3.19957 0 4.0625V5.3125C0 5.6577 0.2755 5.9375 0.615385 5.9375H15.3846C15.7245 5.9375 16 5.6577 16 5.3125V4.0625C16 3.19957 15.3112 2.5 14.4615 2.5ZM6.15385 1.875C6.15385 1.53047 6.43 1.25 6.76923 1.25H9.23077C9.57 1.25 9.84615 1.53047 9.84615 1.875V2.5H6.15385V1.875Z" fill="#4d4d4d"/>
<path d="M1.16779 7.1875C1.05799 7.1875 0.970487 7.2807 0.975717 7.39211L1.48341 18.2141C1.53033 19.2156 2.34033 20 3.32726 20H12.6726C13.6596 20 14.4696 19.2156 14.5165 18.2141L15.0242 7.39211C15.0294 7.2807 14.9419 7.1875 14.8321 7.1875H1.16779ZM10.4615 8.75C10.4615 8.40469 10.7369 8.125 11.0769 8.125C11.4169 8.125 11.6923 8.40469 11.6923 8.75V16.875C11.6923 17.2203 11.4169 17.5 11.0769 17.5C10.7369 17.5 10.4615 17.2203 10.4615 16.875V8.75ZM7.38456 8.75C7.38456 8.40469 7.65995 8.125 7.99995 8.125C8.33995 8.125 8.61533 8.40469 8.61533 8.75V16.875C8.61533 17.2203 8.33995 17.5 7.99995 17.5C7.65995 17.5 7.38456 17.2203 7.38456 16.875V8.75ZM4.30764 8.75C4.30764 8.40469 4.58302 8.125 4.92302 8.125C5.26302 8.125 5.53841 8.40469 5.53841 8.75V16.875C5.53841 17.2203 5.26302 17.5 4.92302 17.5C4.58302 17.5 4.30764 17.2203 4.30764 16.875V8.75Z" fill="#4d4d4d"/>
</svg>
