<svg width="27" height="18" viewBox="0 0 27 18" fill="none" xmlns="http://www.w3.org/2000/svg">
<path d="M1.42148 14.5333L13.1776 14.5333C13.591 16.235 15.1262 17.5019 16.9568 17.5019C18.7873 17.5019 20.3172 16.235 20.7359 14.5333H25.8785C26.3885 14.5333 26.8018 14.12 26.8018 13.61C26.8018 13.1 26.3885 12.692 25.8785 12.692H20.7359C20.3226 10.9904 18.7873 9.72348 16.9568 9.72348C15.1262 9.72348 13.5963 10.9904 13.1776 12.692L1.42148 12.692C0.911513 12.692 0.498169 13.1054 0.498169 13.61C0.503537 14.1253 0.916881 14.5333 1.42148 14.5333ZM16.9568 11.5701C18.0841 11.5701 19.002 12.4881 19.002 13.6154C19.002 14.7427 18.0841 15.6606 16.9568 15.6606C15.8295 15.6606 14.9061 14.7427 14.9061 13.6154C14.9061 12.4881 15.8241 11.5701 16.9568 11.5701Z" fill="#2D2942"/>
<path d="M1.42148 5.61166L7.06335 5.61166C7.4767 7.31335 9.01197 8.58022 10.8425 8.58022C12.673 8.58022 14.2029 7.31335 14.6216 5.61166L25.8785 5.61166C26.3885 5.61166 26.8018 5.19832 26.8018 4.68835C26.8018 4.17838 26.3885 3.77041 25.8785 3.77041L14.6216 3.77041C14.2083 2.06872 12.673 0.801849 10.8425 0.801849C9.01197 0.801849 7.48206 2.06872 7.06335 3.77041L1.42148 3.77041C0.911513 3.77041 0.498169 4.18375 0.498169 4.68835C0.503537 5.19832 0.916881 5.61166 1.42148 5.61166ZM10.8425 2.64311C11.9698 2.64311 12.8877 3.56105 12.8877 4.68835C12.8877 5.81565 11.9698 6.7336 10.8425 6.7336C9.7313 6.7336 8.82409 5.84249 8.79725 4.7313C8.79725 4.71519 8.79725 4.69909 8.79725 4.68298C8.79725 4.66688 8.79725 4.65077 8.79725 4.63467C8.82409 3.53958 9.7313 2.64311 10.8425 2.64311Z" fill="#2D2942"/>
</svg>
