<svg width="225" height="56" viewBox="0 0 225 56" fill="none" xmlns="http://www.w3.org/2000/svg">
<path d="M44.693 21.206L44.428 24.386C43.6153 24.3153 42.732 24.28 41.778 24.28C40.8593 24.28 40.082 24.2977 39.446 24.333C38.9513 28.2197 38.6333 32.442 38.492 37H34.782C34.57 36.0813 34.464 34.8623 34.464 33.343C34.464 31.8237 34.4993 30.5163 34.57 29.421C34.676 28.2903 34.7997 27.1773 34.941 26.082C35.0823 24.9867 35.153 24.3507 35.153 24.174C34.6583 24.1387 33.4923 24.121 31.655 24.121C29.8177 24.121 28.5457 24.1563 27.839 24.227C23.7403 29.739 19.9597 33.926 16.497 36.788C13.0343 39.6147 9.57167 41.028 6.109 41.028C4.413 41.028 2.982 40.5157 1.816 39.491C0.685334 38.4663 0.12 37.106 0.12 35.41C0.12 32.1947 2.558 29.262 7.434 26.612C12.3453 23.962 18.6877 22.1777 26.461 21.259C27.3797 19.8457 29.0933 17.6727 31.602 14.74C34.1107 11.772 36.584 9.19267 39.022 7.002C40.082 4.52866 40.9123 2.815 41.513 1.861C42.149 0.871664 42.7673 0.376998 43.368 0.376998C43.9687 0.376998 44.4633 0.606665 44.852 1.066C45.2407 1.52533 45.435 2.126 45.435 2.868C45.435 3.57467 45.0287 4.63467 44.216 6.048C43.4387 7.426 42.626 9.58133 41.778 12.514C40.93 15.4113 40.347 18.1497 40.029 20.729C41.8663 20.729 43.421 20.888 44.693 21.206ZM17.663 32.283C20.5957 29.4917 22.804 26.8417 24.288 24.333C18.352 24.6863 13.7587 25.7993 10.508 27.672C7.29267 29.5447 5.685 31.541 5.685 33.661C5.685 34.5797 5.98533 35.304 6.586 35.834C7.222 36.364 8.05233 36.629 9.077 36.629C11.833 36.629 14.695 35.1803 17.663 32.283ZM35.789 20.729C36.0363 19.5277 36.3543 18.026 36.743 16.224C37.167 14.3867 37.4143 13.309 37.485 12.991C35.789 14.6163 34.6053 15.8177 33.934 16.595C33.2627 17.337 32.079 18.7857 30.383 20.941C30.9837 20.9057 31.708 20.888 32.556 20.888C33.4393 20.8527 34.1637 20.8173 34.729 20.782C35.2943 20.7467 35.6477 20.729 35.789 20.729ZM56.4892 27.248C59.1746 23.22 61.5066 20.4817 63.4852 19.033C65.4639 17.549 67.1952 16.807 68.6792 16.807C70.1632 16.807 71.3116 17.2663 72.1242 18.185C72.9369 19.0683 73.3432 20.199 73.3432 21.577C73.3432 25.393 71.9652 28.9263 69.2092 32.177C66.4886 35.3923 63.4146 37 59.9872 37C58.4679 37 57.2666 36.735 56.3832 36.205L57.6552 33.926C59.5279 34.1733 60.6762 34.297 61.1002 34.297C63.0082 34.297 64.7926 33.184 66.4532 30.958C68.1139 28.732 68.9442 26.453 68.9442 24.121C68.9442 23.2377 68.6792 22.5133 68.1492 21.948C67.6546 21.3473 67.0009 21.047 66.1882 21.047C64.2449 21.047 62.0366 22.7607 59.5632 26.188C57.1252 29.6153 54.8286 33.8553 52.6732 38.908C50.5532 43.996 48.6982 49.402 47.1082 55.126L43.9282 54.013C43.9989 53.801 44.6702 51.9637 45.9422 48.501C47.1789 45.0737 48.3979 41.664 49.5992 38.272C52.9206 28.944 54.5812 23.8383 54.5812 22.955C54.5812 20.6937 54.1219 18.6443 53.2032 16.807L55.8532 15.482C56.9486 17.0013 57.4962 18.609 57.4962 20.305C57.4962 21.9657 57.1606 24.28 56.4892 27.248ZM109.731 30.11L110.844 31.17C108.83 34.774 106.516 36.576 103.901 36.576C102.841 36.576 102.011 36.2933 101.41 35.728C100.845 35.1273 100.562 34.35 100.562 33.396C100.562 32.4067 101.145 30.7283 102.311 28.361C103.477 25.9937 104.095 24.1917 104.166 22.955C104.201 22.3897 104.025 21.9303 103.636 21.577C103.283 21.2237 102.788 21.047 102.152 21.047C101.516 21.047 100.862 21.206 100.191 21.524C99.555 21.8067 98.919 22.2837 98.283 22.955C97.6824 23.6263 97.117 24.28 96.587 24.916C96.0924 25.552 95.527 26.453 94.891 27.619C94.2904 28.785 93.778 29.7567 93.354 30.534C92.612 31.9827 91.552 34.1557 90.174 37.053L86.994 35.94C86.994 35.834 87.577 33.8377 88.743 29.951C89.909 26.0643 90.492 23.75 90.492 23.008C90.492 22.266 90.3154 21.736 89.962 21.418C89.6087 21.0647 89.167 20.888 88.637 20.888C87.047 20.888 84.8387 22.8667 82.012 26.824C79.2207 30.7813 77.4364 34.1557 76.659 36.947L73.638 35.94C73.8147 34.0673 74.645 30.7107 76.129 25.87C77.613 20.994 78.8674 17.6727 79.892 15.906L82.277 16.754C81.1817 19.192 80.422 21.259 79.998 22.955C79.574 24.6157 79.203 26.4 78.885 28.308C81.9237 23.962 84.4677 20.9233 86.517 19.192C88.5664 17.4253 90.4214 16.542 92.082 16.542C93.884 16.542 94.785 17.443 94.785 19.245C94.785 19.9517 94.467 21.3473 93.831 23.432C93.2304 25.5167 92.7534 27.1597 92.4 28.361C97.276 20.517 101.64 16.595 105.491 16.595C106.445 16.595 107.205 16.8953 107.77 17.496C108.335 18.0613 108.618 18.927 108.618 20.093C108.618 21.2237 107.947 23.114 106.604 25.764C105.297 28.414 104.643 30.0923 104.643 30.799C104.643 31.4703 104.784 31.965 105.067 32.283C105.35 32.601 105.703 32.76 106.127 32.76C107.046 32.76 108.247 31.8767 109.731 30.11ZM128.638 18.715C130.405 16.9837 135.457 11.772 143.796 3.08L146.022 5.412C144.361 7.532 141.34 10.7473 136.959 15.058C132.613 19.3333 130.281 21.63 129.963 21.948C131.129 24.4567 132.295 26.6297 133.461 28.467C134.662 30.3043 135.705 31.8767 136.588 33.184C137.471 34.4913 138.001 35.2863 138.178 35.569L135.316 38.272C132.701 35.5867 129.892 31.1347 126.889 24.916C125.688 26.0467 124.257 27.4247 122.596 29.05C120.935 30.6753 119.699 31.8767 118.886 32.654C116.943 34.5267 114.84 36.2227 112.579 37.742L110.83 35.357C110.936 35.251 112.756 33.6963 116.289 30.693C119.822 27.6543 122.896 24.6863 125.511 21.789C123.073 15.2523 121.448 9.77567 120.635 5.359L124.663 4.617C126.359 11.7897 127.684 16.489 128.638 18.715ZM158.155 21.259C159.074 22.7783 159.533 24.4567 159.533 26.294C159.533 29.156 158.544 31.7177 156.565 33.979C154.587 36.205 152.255 37.318 149.569 37.318C147.52 37.318 145.912 36.735 144.746 35.569C143.616 34.3677 143.05 32.7247 143.05 30.64C143.05 27.2833 144.358 24.28 146.972 21.63C149.587 18.9447 152.52 17.602 155.77 17.602C156.371 17.602 156.795 17.6197 157.042 17.655L157.201 19.404C154.375 19.404 152.025 20.2167 150.152 21.842C148.28 23.4673 147.343 25.552 147.343 28.096C147.343 29.6153 147.714 30.852 148.456 31.806C149.198 32.7247 150.276 33.184 151.689 33.184C153.138 33.184 154.286 32.548 155.134 31.276C155.982 30.004 156.406 28.52 156.406 26.824C156.406 25.0927 156.071 23.5203 155.399 22.107L158.155 21.259ZM166.507 7.32C166.507 5.412 167.214 3.94567 168.627 2.921C170.041 1.89633 172.037 1.384 174.616 1.384C177.231 1.34866 178.998 1.543 179.916 1.967L179.439 4.193C178.203 4.01633 176.86 3.928 175.411 3.928C172.302 3.928 170.747 5.21767 170.747 7.797C170.747 8.50367 171.684 10.5883 173.556 14.051C175.464 17.5137 176.56 19.5983 176.842 20.305C177.16 21.0117 177.425 21.948 177.637 23.114C177.885 24.2447 178.008 25.0927 178.008 25.658C178.008 28.7673 177.037 31.4527 175.093 33.714C173.15 35.94 170.8 37.053 168.044 37.053C165.995 37.053 164.387 36.47 163.221 35.304C162.091 34.1027 161.525 32.389 161.525 30.163C161.525 27.9017 162.25 25.6757 163.698 23.485C165.147 21.2943 166.984 19.6513 169.21 18.556L169.899 20.623C167.179 22.319 165.818 24.7217 165.818 27.831C165.818 29.3503 166.189 30.587 166.931 31.541C167.673 32.4597 168.698 32.919 170.005 32.919C171.313 32.919 172.443 32.336 173.397 31.17C174.387 30.004 174.881 28.5377 174.881 26.771C174.881 25.0043 174.634 23.591 174.139 22.531C173.68 21.471 172.797 19.828 171.489 17.602C168.168 11.772 166.507 8.34467 166.507 7.32ZM186.175 7.32C186.175 5.412 186.882 3.94567 188.295 2.921C189.709 1.89633 191.705 1.384 194.284 1.384C196.899 1.34866 198.666 1.543 199.584 1.967L199.107 4.193C197.871 4.01633 196.528 3.928 195.079 3.928C191.97 3.928 190.415 5.21767 190.415 7.797C190.415 8.50367 191.352 10.5883 193.224 14.051C195.132 17.5137 196.228 19.5983 196.51 20.305C196.828 21.0117 197.093 21.948 197.305 23.114C197.553 24.2447 197.676 25.0927 197.676 25.658C197.676 28.7673 196.705 31.4527 194.761 33.714C192.818 35.94 190.468 37.053 187.712 37.053C185.663 37.053 184.055 36.47 182.889 35.304C181.759 34.1027 181.193 32.389 181.193 30.163C181.193 27.9017 181.918 25.6757 183.366 23.485C184.815 21.2943 186.652 19.6513 188.878 18.556L189.567 20.623C186.847 22.319 185.486 24.7217 185.486 27.831C185.486 29.3503 185.857 30.587 186.599 31.541C187.341 32.4597 188.366 32.919 189.673 32.919C190.981 32.919 192.111 32.336 193.065 31.17C194.055 30.004 194.549 28.5377 194.549 26.771C194.549 25.0043 194.302 23.591 193.807 22.531C193.348 21.471 192.465 19.828 191.157 17.602C187.836 11.772 186.175 8.34467 186.175 7.32ZM223.015 30.799L224.128 31.7C223.528 33.184 222.574 34.4383 221.266 35.463C219.994 36.4877 218.828 37 217.768 37C216.744 37 215.931 36.6467 215.33 35.94C214.73 35.198 214.429 34.244 214.429 33.078C214.429 31.912 214.624 30.4103 215.012 28.573C213.352 31.1877 211.567 33.237 209.659 34.721C207.751 36.205 206.144 36.947 204.836 36.947C202.858 36.947 201.868 35.7633 201.868 33.396C201.868 31.0287 202.681 27.8487 204.306 23.856C205.967 19.828 207.151 17.5313 207.857 16.966L210.401 18.079C208.953 20.411 207.857 22.7077 207.115 24.969C206.373 27.2303 206.002 28.7497 206.002 29.527C206.002 30.269 206.232 30.8697 206.691 31.329C207.186 31.7883 207.751 32.018 208.387 32.018C209.801 32.018 211.55 30.7283 213.634 28.149C215.754 25.5343 217.91 21.6477 220.1 16.489L222.803 17.708C222.733 17.9907 221.92 20.04 220.365 23.856C218.846 27.672 218.086 29.9687 218.086 30.746C218.086 31.488 218.245 32.0533 218.563 32.442C218.917 32.8307 219.252 33.025 219.57 33.025C219.924 33.025 220.189 33.0073 220.365 32.972C220.542 32.9367 220.719 32.866 220.895 32.76C221.072 32.654 221.213 32.5657 221.319 32.495C221.461 32.4243 221.62 32.3007 221.796 32.124L222.167 31.7C222.273 31.6293 222.415 31.488 222.591 31.276C222.803 31.0287 222.945 30.8697 223.015 30.799Z" fill="#2D2942"/>
</svg>
