<svg width="20" height="5" viewBox="0 0 20 5" fill="none" xmlns="http://www.w3.org/2000/svg">
<path d="M10 5C11.3807 5 12.5 3.88071 12.5 2.5C12.5 1.11929 11.3807 0 10 0C8.61929 0 7.5 1.11929 7.5 2.5C7.5 3.88071 8.61929 5 10 5Z" fill="#2D2942"/>
<path d="M17.5 5C18.8807 5 20 3.88071 20 2.5C20 1.11929 18.8807 0 17.5 0C16.1193 0 15 1.11929 15 2.5C15 3.88071 16.1193 5 17.5 5Z" fill="#2D2942"/>
<path d="M2.5 5C3.88071 5 5 3.88071 5 2.5C5 1.11929 3.88071 0 2.5 0C1.11929 0 0 1.11929 0 2.5C0 3.88071 1.11929 5 2.5 5Z" fill="#2D2942"/>
</svg>
