<svg width="24" height="24" viewBox="0 0 24 24" fill="none" xmlns="http://www.w3.org/2000/svg">
<path d="M0.800049 0.799988L1.76005 3.99999M1.76005 3.99999L5.60005 16.8H23.2V7.19999C23.2 5.43268 21.7674 3.99999 20 3.99999H1.76005ZM20 23.2C19.1164 23.2 18.4 22.4836 18.4 21.6C18.4 20.7163 19.1164 20 20 20C20.8837 20 21.6 20.7163 21.6 21.6C21.6 22.4836 20.8837 23.2 20 23.2ZM7.20005 21.6C7.20005 20.7163 7.91639 20 8.80005 20C9.6837 20 10.4 20.7163 10.4 21.6C10.4 22.4836 9.6837 23.2 8.80005 23.2C7.91639 23.2 7.20005 22.4836 7.20005 21.6Z" stroke="#16162E" stroke-width="1.5"/>
</svg>
